<svg width="27.000000" height="27.000000" viewBox="0 0 27 27" fill="none" xmlns="http://www.w3.org/2000/svg" xmlns:xlink="http://www.w3.org/1999/xlink">
	<desc>
			Created with Pixso.
	</desc>
	<defs/>
	<path id="Vector" d="M24.89 27L15.45 17.54C14.7 18.15 13.83 18.62 12.86 18.97C11.88 19.32 10.85 19.5 9.75 19.5C7.02 19.5 4.71 18.55 2.83 16.66C0.94 14.78 0 12.47 0 9.75C0 7.02 0.94 4.71 2.83 2.83C4.71 0.94 7.02 0 9.75 0C12.47 0 14.78 0.94 16.66 2.83C18.55 4.71 19.5 7.02 19.5 9.75C19.5 10.84 19.32 11.88 18.97 12.86C18.62 13.83 18.14 14.7 17.54 15.45L27 24.9L24.89 27ZM9.75 16.5C11.62 16.5 13.21 15.84 14.53 14.53C15.84 13.21 16.5 11.62 16.5 9.75C16.5 7.87 15.84 6.28 14.53 4.96C13.21 3.65 11.62 3 9.75 3C7.87 3 6.28 3.65 4.96 4.96C3.65 6.28 3 7.87 3 9.75C3 11.62 3.65 13.21 4.96 14.53C6.28 15.84 7.87 16.5 9.75 16.5Z" fill="#FFFFFF" fill-opacity="1.000000" fill-rule="nonzero"/>
</svg>
