<svg width="157.000000" height="44.000000" viewBox="0 0 157 44" fill="none" xmlns="http://www.w3.org/2000/svg" xmlns:xlink="http://www.w3.org/1999/xlink">
	<desc>
			Created with Pixso.
	</desc>
	<defs/>
	<path id="Прямоугольник 1" d="M24.88 0L157 0L157 44L24.88 44L0 22L24.88 0Z" fill="#BD0000" fill-opacity="1.000000" fill-rule="evenodd"/>
	<path id="НАЗАД" d="M91.17 22.8Q90.51 22.06 89.44 21.7Q90.16 21.37 90.64 20.84Q90.79 20.67 90.91 20.49Q91.11 20.2 91.24 19.89Q91.45 19.34 91.45 18.72Q91.45 18.13 91.26 17.61Q91.06 17.05 90.63 16.58Q89.81 15.66 88.43 15.18Q87.05 14.69 85.41 14.69Q83.76 14.69 82.25 15.16Q81.41 15.43 80.61 15.84L81.6 18.36Q82.01 18.12 82.44 17.94Q82.93 17.74 83.46 17.61Q84.44 17.35 85.36 17.35Q86.6 17.35 87.39 17.82Q87.87 18.1 88.06 18.52Q88.18 18.78 88.18 19.09Q88.18 19.47 88.02 19.76Q87.88 20.01 87.63 20.2Q87.07 20.6 86.1 20.6L82.91 20.6L82.91 23.03L86.34 23.03Q87.45 23.03 88.1 23.43Q88.41 23.62 88.57 23.9Q88.75 24.21 88.75 24.62Q88.75 24.95 88.63 25.24Q88.41 25.74 87.8 26.08Q86.85 26.59 85.41 26.59Q84.35 26.59 83.25 26.3Q82.14 26.02 81.21 25.46L80.21 27.77Q80.89 28.17 81.61 28.45Q82.25 28.71 82.92 28.88Q84.2 29.19 85.48 29.23Q85.64 29.23 85.79 29.23Q87.49 29.23 88.92 28.74Q90.36 28.23 91.2 27.3Q91.59 26.85 91.8 26.33Q92.03 25.75 92.03 25.07Q92.03 24.37 91.78 23.76Q91.62 23.36 91.34 23.01Q91.26 22.9 91.17 22.8ZM62 29L62 15L58.75 15L58.75 20.51L52.4 20.51L52.4 15L49.15 15L49.15 29L52.4 29L52.4 23.25L58.75 23.25L58.75 29L62 29ZM68.48 26L74.98 26L76.22 29L79.61 29L73.35 15L70.16 15L63.92 29L67.24 29L68.48 26ZM97.58 26L104.08 26L105.32 29L108.71 29L102.46 15L99.26 15L93.02 29L96.34 29L97.58 26ZM125.14 31.9L125.14 26.35L123.17 26.35L123.17 15L112.42 15L112.26 19.38Q112.13 22.72 111.61 24.52Q111.22 25.89 110.39 26.24Q110.13 26.34 109.83 26.35L109.28 26.35L109.25 31.9L112.26 31.9L112.26 29L122.13 29L122.13 31.9L125.14 31.9ZM114.69 23.86Q115.02 22.17 115.12 19.67L115.18 17.63L119.98 17.63L119.98 26.35L113.72 26.35Q114.38 25.55 114.69 23.86ZM71.74 18.17L73.96 23.54L69.52 23.54L71.74 18.17ZM100.84 18.17L103.06 23.54L98.62 23.54L100.84 18.17Z" fill="#FFFFFF" fill-opacity="1.000000" fill-rule="evenodd"/>
</svg>
